<?xml version="1.0" encoding="iso-8859-1"?>
<!-- Generator: Adobe Illustrator 19.0.0, SVG Export Plug-In . SVG Version: 6.00 Build 0)  -->
<svg version="1.1" id="Layer_1" xmlns="http://www.w3.org/2000/svg" xmlns:xlink="http://www.w3.org/1999/xlink" x="0px" y="0px"
	 viewBox="0 0 512 512" style="enable-background:new 0 0 512 512;" xml:space="preserve">
<g>
	<g>
		<g>
			<path d="M477.62,0H358.153H238.687c-4.71,0-8.533,3.814-8.533,8.533v11.345l-107.439-19.7c-2.21-0.41-4.523,0.068-6.383,1.365
				c-1.86,1.28-3.132,3.26-3.541,5.478L25.989,480.375c-0.853,4.642,2.21,9.088,6.852,9.933l117.504,21.555
				c0.503,0.085,1.024,0.137,1.536,0.137c1.724,0,3.413-0.512,4.847-1.51c1.86-1.28,3.14-3.251,3.541-5.478l69.884-381.06v379.516
				c0,4.719,3.823,8.533,8.533,8.533h119.467H477.62c4.719,0,8.533-3.814,8.533-8.533V8.533C486.153,3.814,482.339,0,477.62,0z
				 M145.029,493.533L44.31,475.067l83.729-456.568l100.719,18.466L145.029,493.533z M247.22,17.067h102.4v477.867h-102.4V17.067z
				 M469.087,494.933h-102.4V17.067h102.4V494.933z"/>
			<path d="M417.889,452.267c18.825,0,34.133-15.309,34.133-34.133S436.714,384,417.889,384s-34.133,15.309-34.133,34.133
				S399.065,452.267,417.889,452.267z M417.889,401.067c9.412,0,17.067,7.654,17.067,17.067s-7.654,17.067-17.067,17.067
				c-9.412,0-17.067-7.654-17.067-17.067S408.477,401.067,417.889,401.067z"/>
			<path d="M392.289,179.2h51.2c4.71,0,8.533-3.814,8.533-8.533s-3.823-8.533-8.533-8.533h-51.2c-4.71,0-8.533,3.814-8.533,8.533
				S387.579,179.2,392.289,179.2z"/>
			<path d="M392.289,145.067h51.2c4.71,0,8.533-3.814,8.533-8.533S448.2,128,443.489,128h-51.2c-4.71,0-8.533,3.814-8.533,8.533
				S387.579,145.067,392.289,145.067z"/>
			<path d="M392.289,110.933h51.2c4.71,0,8.533-3.814,8.533-8.533s-3.823-8.533-8.533-8.533h-51.2c-4.71,0-8.533,3.814-8.533,8.533
				S387.579,110.933,392.289,110.933z"/>
			<path d="M392.289,76.8h51.2c4.71,0,8.533-3.814,8.533-8.533s-3.823-8.533-8.533-8.533h-51.2c-4.71,0-8.533,3.814-8.533,8.533
				S387.579,76.8,392.289,76.8z"/>
			<path d="M298.423,384c-18.825,0-34.133,15.309-34.133,34.133s15.309,34.133,34.133,34.133s34.133-15.309,34.133-34.133
				S317.247,384,298.423,384z M298.423,435.2c-9.412,0-17.067-7.654-17.067-17.067s7.654-17.067,17.067-17.067
				c9.412,0,17.067,7.654,17.067,17.067S307.835,435.2,298.423,435.2z"/>
			<path d="M324.023,162.133h-51.2c-4.71,0-8.533,3.814-8.533,8.533s3.823,8.533,8.533,8.533h51.2c4.71,0,8.533-3.814,8.533-8.533
				S328.733,162.133,324.023,162.133z"/>
			<path d="M324.023,128h-51.2c-4.71,0-8.533,3.814-8.533,8.533s3.823,8.533,8.533,8.533h51.2c4.71,0,8.533-3.814,8.533-8.533
				S328.733,128,324.023,128z"/>
			<path d="M324.023,93.867h-51.2c-4.71,0-8.533,3.814-8.533,8.533s3.823,8.533,8.533,8.533h51.2c4.71,0,8.533-3.814,8.533-8.533
				S328.733,93.867,324.023,93.867z"/>
			<path d="M324.023,59.733h-51.2c-4.71,0-8.533,3.814-8.533,8.533s3.823,8.533,8.533,8.533h51.2c4.71,0,8.533-3.814,8.533-8.533
				S328.733,59.733,324.023,59.733z"/>
			<path d="M114.68,375.18c-8.96-1.638-18.048,0.307-25.549,5.487c-7.501,5.171-12.544,12.971-14.182,21.931
				c-3.396,18.517,8.9,36.343,27.418,39.74c2.074,0.375,4.156,0.563,6.221,0.563c6.861,0,13.56-2.065,19.319-6.05
				c7.509-5.171,12.544-12.971,14.182-21.931C145.486,396.402,133.189,378.576,114.68,375.18z M125.313,411.831
				c-0.828,4.497-3.345,8.388-7.1,10.974c-3.746,2.594-8.286,3.575-12.774,2.748c-9.25-1.698-15.403-10.607-13.705-19.866
				c0.819-4.497,3.337-8.388,7.091-10.982c2.884-1.988,6.229-3.021,9.66-3.021c1.033,0,2.074,0.094,3.115,0.282
				C120.858,393.663,127.003,402.572,125.313,411.831z"/>
			<path d="M176.805,178.37l-50.364-9.242c-4.634-0.896-9.079,2.21-9.933,6.844s2.219,9.088,6.852,9.933l50.355,9.242
				c0.521,0.102,1.041,0.145,1.553,0.145c4.045,0,7.629-2.876,8.38-6.989C184.51,183.669,181.438,179.215,176.805,178.37z"/>
			<path d="M182.955,144.795l-50.355-9.233c-4.642-0.896-9.079,2.21-9.933,6.844c-0.845,4.642,2.219,9.088,6.852,9.933l50.364,9.233
				c0.521,0.102,1.033,0.145,1.545,0.145c4.045,0,7.629-2.876,8.38-6.989C190.66,150.086,187.597,145.64,182.955,144.795z"/>
			<path d="M135.678,118.764l50.364,9.233c0.521,0.102,1.033,0.145,1.545,0.145c4.045,0,7.629-2.884,8.38-6.989
				c0.853-4.642-2.21-9.088-6.852-9.933l-50.364-9.233c-4.634-0.887-9.079,2.219-9.924,6.844
				C127.972,113.473,131.044,117.919,135.678,118.764z"/>
			<path d="M141.832,85.188l50.364,9.233c0.521,0.102,1.033,0.145,1.545,0.145c4.045,0,7.629-2.876,8.38-6.989
				c0.853-4.642-2.21-9.088-6.852-9.933l-50.355-9.233c-4.642-0.879-9.079,2.21-9.933,6.844
				C134.135,79.898,137.198,84.343,141.832,85.188z"/>
			<path d="M409.356,221.867v119.467c0,4.719,3.823,8.533,8.533,8.533c4.71,0,8.533-3.814,8.533-8.533V221.867
				c0-4.719-3.823-8.533-8.533-8.533C413.179,213.333,409.356,217.148,409.356,221.867z"/>
			<path d="M306.956,341.333V221.867c0-4.719-3.823-8.533-8.533-8.533c-4.71,0-8.533,3.814-8.533,8.533v119.467
				c0,4.719,3.823,8.533,8.533,8.533C303.133,349.867,306.956,346.052,306.956,341.333z"/>
			<path d="M141.272,220.841c-4.659-0.879-9.079,2.219-9.933,6.852l-21.547,117.504c-0.853,4.642,2.21,9.088,6.852,9.933
				c0.521,0.102,1.033,0.145,1.545,0.145c4.045,0,7.629-2.876,8.38-6.989l21.555-117.513
				C148.969,226.132,145.906,221.694,141.272,220.841z"/>
		</g>
	</g>
</g>
<g>
</g>
<g>
</g>
<g>
</g>
<g>
</g>
<g>
</g>
<g>
</g>
<g>
</g>
<g>
</g>
<g>
</g>
<g>
</g>
<g>
</g>
<g>
</g>
<g>
</g>
<g>
</g>
<g>
</g>
</svg>
